<svg id="wave" style="transform:rotate(180deg); transition: 0.3s" viewBox="0 0 1440 360" version="1.1"
  xmlns="http://www.w3.org/2000/svg">
  <defs>
    <linearGradient id="sw-gradient-0" x1="0" x2="0" y1="1" y2="0">
      <stop stop-color="rgba(246.213, 246.213, 246.213, 1)" offset="0%"></stop>
      <stop stop-color="rgba(255, 36, 0, 1)" offset="100%"></stop>
    </linearGradient>
  </defs>
  <path style="transform:translate(0, 0px); opacity:1" fill="url(#sw-gradient-0)"
    d="M0,108L34.3,120C68.6,132,137,156,206,156C274.3,156,343,132,411,156C480,180,549,252,617,246C685.7,240,754,156,823,126C891.4,96,960,120,1029,114C1097.1,108,1166,72,1234,96C1302.9,120,1371,204,1440,204C1508.6,204,1577,120,1646,114C1714.3,108,1783,180,1851,192C1920,204,1989,156,2057,120C2125.7,84,2194,60,2263,66C2331.4,72,2400,108,2469,102C2537.1,96,2606,48,2674,24C2742.9,0,2811,0,2880,0C2948.6,0,3017,0,3086,12C3154.3,24,3223,48,3291,102C3360,156,3429,240,3497,246C3565.7,252,3634,180,3703,138C3771.4,96,3840,84,3909,84C3977.1,84,4046,96,4114,108C4182.9,120,4251,132,4320,144C4388.6,156,4457,168,4526,192C4594.3,216,4663,252,4731,276C4800,300,4869,312,4903,318L4937.1,324L4937.1,360L4902.9,360C4868.6,360,4800,360,4731,360C4662.9,360,4594,360,4526,360C4457.1,360,4389,360,4320,360C4251.4,360,4183,360,4114,360C4045.7,360,3977,360,3909,360C3840,360,3771,360,3703,360C3634.3,360,3566,360,3497,360C3428.6,360,3360,360,3291,360C3222.9,360,3154,360,3086,360C3017.1,360,2949,360,2880,360C2811.4,360,2743,360,2674,360C2605.7,360,2537,360,2469,360C2400,360,2331,360,2263,360C2194.3,360,2126,360,2057,360C1988.6,360,1920,360,1851,360C1782.9,360,1714,360,1646,360C1577.1,360,1509,360,1440,360C1371.4,360,1303,360,1234,360C1165.7,360,1097,360,1029,360C960,360,891,360,823,360C754.3,360,686,360,617,360C548.6,360,480,360,411,360C342.9,360,274,360,206,360C137.1,360,69,360,34,360L0,360Z">
  </path>
  <defs>
    <linearGradient id="sw-gradient-1" x1="0" x2="0" y1="1" y2="0">
      <stop stop-color="rgba(255, 255, 255, 1)" offset="0%"></stop>
      <stop stop-color="rgba(255, 36, 0, 1)" offset="100%"></stop>
    </linearGradient>
  </defs>
  <path style="transform:translate(0, 50px); opacity:0.9" fill="url(#sw-gradient-1)"
    d="M0,324L34.3,312C68.6,300,137,276,206,228C274.3,180,343,108,411,78C480,48,549,60,617,96C685.7,132,754,192,823,216C891.4,240,960,228,1029,210C1097.1,192,1166,168,1234,186C1302.9,204,1371,264,1440,288C1508.6,312,1577,300,1646,258C1714.3,216,1783,144,1851,126C1920,108,1989,144,2057,180C2125.7,216,2194,252,2263,234C2331.4,216,2400,144,2469,150C2537.1,156,2606,240,2674,252C2742.9,264,2811,204,2880,162C2948.6,120,3017,96,3086,102C3154.3,108,3223,144,3291,174C3360,204,3429,228,3497,222C3565.7,216,3634,180,3703,180C3771.4,180,3840,216,3909,228C3977.1,240,4046,228,4114,198C4182.9,168,4251,120,4320,126C4388.6,132,4457,192,4526,210C4594.3,228,4663,204,4731,186C4800,168,4869,156,4903,150L4937.1,144L4937.1,360L4902.9,360C4868.6,360,4800,360,4731,360C4662.9,360,4594,360,4526,360C4457.1,360,4389,360,4320,360C4251.4,360,4183,360,4114,360C4045.7,360,3977,360,3909,360C3840,360,3771,360,3703,360C3634.3,360,3566,360,3497,360C3428.6,360,3360,360,3291,360C3222.9,360,3154,360,3086,360C3017.1,360,2949,360,2880,360C2811.4,360,2743,360,2674,360C2605.7,360,2537,360,2469,360C2400,360,2331,360,2263,360C2194.3,360,2126,360,2057,360C1988.6,360,1920,360,1851,360C1782.9,360,1714,360,1646,360C1577.1,360,1509,360,1440,360C1371.4,360,1303,360,1234,360C1165.7,360,1097,360,1029,360C960,360,891,360,823,360C754.3,360,686,360,617,360C548.6,360,480,360,411,360C342.9,360,274,360,206,360C137.1,360,69,360,34,360L0,360Z">
  </path>
  <defs>
    <linearGradient id="sw-gradient-2" x1="0" x2="0" y1="1" y2="0">
      <stop stop-color="rgba(255, 255, 255, 1)" offset="0%"></stop>
      <stop stop-color="rgba(255, 36, 0, 1)" offset="100%"></stop>
    </linearGradient>
  </defs>
  <path style="transform:translate(0, 100px); opacity:0.8" fill="url(#sw-gradient-2)"
    d="M0,0L34.3,42C68.6,84,137,168,206,180C274.3,192,343,132,411,120C480,108,549,144,617,144C685.7,144,754,108,823,132C891.4,156,960,240,1029,246C1097.1,252,1166,180,1234,174C1302.9,168,1371,228,1440,222C1508.6,216,1577,144,1646,144C1714.3,144,1783,216,1851,240C1920,264,1989,240,2057,204C2125.7,168,2194,120,2263,96C2331.4,72,2400,72,2469,96C2537.1,120,2606,168,2674,204C2742.9,240,2811,264,2880,270C2948.6,276,3017,264,3086,264C3154.3,264,3223,276,3291,276C3360,276,3429,264,3497,246C3565.7,228,3634,204,3703,204C3771.4,204,3840,228,3909,216C3977.1,204,4046,156,4114,144C4182.9,132,4251,156,4320,168C4388.6,180,4457,180,4526,186C4594.3,192,4663,204,4731,198C4800,192,4869,168,4903,156L4937.1,144L4937.1,360L4902.9,360C4868.6,360,4800,360,4731,360C4662.9,360,4594,360,4526,360C4457.1,360,4389,360,4320,360C4251.4,360,4183,360,4114,360C4045.7,360,3977,360,3909,360C3840,360,3771,360,3703,360C3634.3,360,3566,360,3497,360C3428.6,360,3360,360,3291,360C3222.9,360,3154,360,3086,360C3017.1,360,2949,360,2880,360C2811.4,360,2743,360,2674,360C2605.7,360,2537,360,2469,360C2400,360,2331,360,2263,360C2194.3,360,2126,360,2057,360C1988.6,360,1920,360,1851,360C1782.9,360,1714,360,1646,360C1577.1,360,1509,360,1440,360C1371.4,360,1303,360,1234,360C1165.7,360,1097,360,1029,360C960,360,891,360,823,360C754.3,360,686,360,617,360C548.6,360,480,360,411,360C342.9,360,274,360,206,360C137.1,360,69,360,34,360L0,360Z">
  </path>
  <defs>
    <linearGradient id="sw-gradient-3" x1="0" x2="0" y1="1" y2="0">
      <stop stop-color="rgba(255, 255, 255, 1)" offset="0%"></stop>
      <stop stop-color="rgba(255, 36, 0, 1)" offset="100%"></stop>
    </linearGradient>
  </defs>
  <path style="transform:translate(0, 150px); opacity:0.7" fill="url(#sw-gradient-3)"
    d="M0,0L34.3,18C68.6,36,137,72,206,72C274.3,72,343,36,411,54C480,72,549,144,617,150C685.7,156,754,96,823,90C891.4,84,960,132,1029,150C1097.1,168,1166,156,1234,162C1302.9,168,1371,192,1440,222C1508.6,252,1577,288,1646,264C1714.3,240,1783,156,1851,144C1920,132,1989,192,2057,222C2125.7,252,2194,252,2263,246C2331.4,240,2400,228,2469,216C2537.1,204,2606,192,2674,198C2742.9,204,2811,228,2880,210C2948.6,192,3017,132,3086,96C3154.3,60,3223,48,3291,60C3360,72,3429,108,3497,150C3565.7,192,3634,240,3703,258C3771.4,276,3840,264,3909,240C3977.1,216,4046,180,4114,144C4182.9,108,4251,72,4320,90C4388.6,108,4457,180,4526,180C4594.3,180,4663,108,4731,114C4800,120,4869,204,4903,246L4937.1,288L4937.1,360L4902.9,360C4868.6,360,4800,360,4731,360C4662.9,360,4594,360,4526,360C4457.1,360,4389,360,4320,360C4251.4,360,4183,360,4114,360C4045.7,360,3977,360,3909,360C3840,360,3771,360,3703,360C3634.3,360,3566,360,3497,360C3428.6,360,3360,360,3291,360C3222.9,360,3154,360,3086,360C3017.1,360,2949,360,2880,360C2811.4,360,2743,360,2674,360C2605.7,360,2537,360,2469,360C2400,360,2331,360,2263,360C2194.3,360,2126,360,2057,360C1988.6,360,1920,360,1851,360C1782.9,360,1714,360,1646,360C1577.1,360,1509,360,1440,360C1371.4,360,1303,360,1234,360C1165.7,360,1097,360,1029,360C960,360,891,360,823,360C754.3,360,686,360,617,360C548.6,360,480,360,411,360C342.9,360,274,360,206,360C137.1,360,69,360,34,360L0,360Z">
  </path>
</svg>